<svg width="205" height="52" viewBox="0 0 205 52" fill="none" xmlns="http://www.w3.org/2000/svg">
<path d="M45.74 32.3035V15.1196H49.2995V32.3035H45.74Z" fill="#273C49"/>
<path d="M52.4285 32.3035V15.1196H55.988V29.1613H65.39V32.3035H52.4285Z" fill="#273C49"/>
<path d="M67.8431 32.3035V15.1196H71.4026V29.1613H80.8047V32.3035H67.8431Z" fill="#273C49"/>
<path d="M83.2578 32.3035V15.1196H86.8173V32.3035H83.2578Z" fill="#273C49"/>
<path d="M89.9462 32.3035V15.1196H93.3339L101.877 26.2155V15.1196H105.215V32.3035H102.073L93.3094 20.8149V32.3035H89.9462Z" fill="#273C49"/>
<path d="M116.754 32.5735C115.477 32.5735 114.291 32.3526 113.194 31.9107C112.098 31.4525 111.132 30.8224 110.297 30.0205C109.479 29.2022 108.833 28.2612 108.358 27.1974C107.9 26.1173 107.671 24.9554 107.671 23.7116C107.671 22.4678 107.9 21.314 108.358 20.2503C108.833 19.1701 109.479 18.2291 110.297 17.4272C111.132 16.6089 112.098 15.9788 113.194 15.537C114.291 15.0787 115.477 14.8496 116.754 14.8496C118.03 14.8496 119.217 15.0787 120.313 15.537C121.426 15.9788 122.392 16.6089 123.21 17.4272C124.044 18.2291 124.691 19.1701 125.149 20.2503C125.607 21.314 125.837 22.4678 125.837 23.7116C125.837 24.9554 125.607 26.1173 125.149 27.1974C124.691 28.2612 124.044 29.2022 123.21 30.0205C122.392 30.8224 121.426 31.4525 120.313 31.9107C119.217 32.3526 118.03 32.5735 116.754 32.5735ZM116.754 29.3086C117.539 29.3086 118.259 29.1695 118.914 28.8913C119.569 28.5967 120.141 28.2039 120.632 27.713C121.123 27.2056 121.508 26.6083 121.786 25.9209C122.064 25.2336 122.203 24.4971 122.203 23.7116C122.203 22.9097 122.064 22.1732 121.786 21.5022C121.508 20.8149 121.123 20.2257 120.632 19.7347C120.141 19.2274 119.569 18.8346 118.914 18.5564C118.259 18.2618 117.539 18.1145 116.754 18.1145C115.984 18.1145 115.273 18.2618 114.618 18.5564C113.963 18.8346 113.39 19.2274 112.9 19.7347C112.409 20.2257 112.024 20.8149 111.746 21.5022C111.468 22.1732 111.328 22.9015 111.328 23.687C111.328 24.4889 111.468 25.2336 111.746 25.9209C112.024 26.6083 112.409 27.2056 112.9 27.713C113.39 28.2039 113.963 28.5967 114.618 28.8913C115.273 29.1695 115.984 29.3086 116.754 29.3086Z" fill="#273C49"/>
<path d="M128.303 32.3035V15.1196H131.863V32.3035H128.303Z" fill="#273C49"/>
<path d="M141.129 32.549C139.738 32.549 138.379 32.2953 137.054 31.788C135.728 31.2643 134.55 30.5278 133.519 29.5786L135.556 27.0256C136.554 27.9093 137.512 28.5476 138.428 28.9404C139.361 29.3331 140.343 29.5295 141.374 29.5295C142.094 29.5295 142.716 29.4477 143.24 29.2841C143.763 29.104 144.164 28.8504 144.443 28.5231C144.737 28.1957 144.885 27.8111 144.885 27.3693C144.885 26.7801 144.672 26.3301 144.246 26.0191C143.821 25.6918 143.092 25.4381 142.061 25.2581L138.649 24.669C137.193 24.4235 136.08 23.908 135.311 23.1224C134.558 22.3369 134.181 21.3222 134.181 20.0784C134.181 19.0146 134.451 18.09 134.992 17.3044C135.548 16.5189 136.325 15.9216 137.324 15.5124C138.338 15.0869 139.541 14.8742 140.932 14.8742C142.192 14.8742 143.444 15.0869 144.688 15.5124C145.948 15.9379 147.061 16.5271 148.027 17.2799L146.112 19.9311C144.312 18.5564 142.503 17.8691 140.687 17.8691C140.048 17.8691 139.492 17.9509 139.017 18.1145C138.543 18.2782 138.175 18.5073 137.913 18.8019C137.667 19.0801 137.545 19.4156 137.545 19.8084C137.545 20.3321 137.733 20.7412 138.109 21.0358C138.486 21.314 139.116 21.5268 139.999 21.6741L143.24 22.2141C144.958 22.4923 146.243 23.0406 147.094 23.8589C147.945 24.6608 148.37 25.7245 148.37 27.0501C148.37 28.163 148.076 29.1368 147.487 29.9714C146.897 30.7897 146.055 31.4279 144.958 31.8862C143.878 32.328 142.602 32.549 141.129 32.549Z" fill="#273C49"/>
<path d="M155.417 32.3035V15.1196H168.624V18.2127H158.976V22.1405H165.334V25.1354H158.976V29.2104H168.722V32.3035H155.417Z" fill="#273C49"/>
<path d="M174.798 29.1368H177.793C178.562 29.1368 179.274 29.0058 179.929 28.744C180.6 28.4658 181.181 28.0812 181.672 27.5902C182.179 27.0992 182.564 26.5265 182.826 25.8718C183.104 25.2172 183.243 24.5053 183.243 23.7361C183.243 22.9669 183.104 22.255 182.826 21.6004C182.547 20.9294 182.163 20.3484 181.672 19.8575C181.181 19.3665 180.6 18.9819 179.929 18.7037C179.274 18.4255 178.562 18.2864 177.793 18.2864H174.798V29.1368ZM171.239 32.3035V15.1196H177.842C179.135 15.1196 180.33 15.3406 181.426 15.7824C182.523 16.208 183.48 16.8135 184.298 17.599C185.117 18.3846 185.755 19.301 186.213 20.3484C186.688 21.3958 186.925 22.5251 186.925 23.7361C186.925 24.9635 186.696 26.0928 186.238 27.1238C185.78 28.1548 185.133 29.0631 184.298 29.8487C183.48 30.6178 182.523 31.2234 181.426 31.6652C180.33 32.0907 179.135 32.3035 177.842 32.3035H171.239Z" fill="#273C49"/>
<path d="M197.832 32.549C196.555 32.549 195.36 32.328 194.247 31.8862C193.135 31.4279 192.161 30.7979 191.326 29.996C190.508 29.194 189.861 28.2612 189.387 27.1974C188.929 26.1173 188.7 24.9554 188.7 23.7116C188.7 22.4514 188.929 21.2895 189.387 20.2257C189.861 19.1456 190.516 18.2046 191.351 17.4026C192.185 16.6007 193.151 15.9788 194.247 15.537C195.36 15.0787 196.555 14.8496 197.832 14.8496C198.781 14.8496 199.697 14.9805 200.581 15.2424C201.465 15.5042 202.283 15.8725 203.036 16.3471C203.805 16.8217 204.46 17.3945 205 18.0654L202.594 20.4466C201.972 19.6775 201.252 19.0965 200.434 18.7037C199.632 18.3109 198.764 18.1145 197.832 18.1145C197.062 18.1145 196.342 18.2618 195.671 18.5564C195 18.8346 194.419 19.2274 193.928 19.7347C193.437 20.2257 193.053 20.8149 192.775 21.5022C192.496 22.1732 192.357 22.9097 192.357 23.7116C192.357 24.4971 192.496 25.2336 192.775 25.9209C193.053 26.5919 193.446 27.1811 193.953 27.6884C194.46 28.1794 195.049 28.564 195.72 28.8422C196.408 29.1204 197.152 29.2595 197.954 29.2595C198.854 29.2595 199.697 29.0713 200.483 28.6949C201.268 28.3185 201.964 27.7784 202.569 27.0747L204.901 29.3822C204.361 30.0369 203.715 30.6015 202.962 31.0761C202.209 31.5507 201.391 31.9189 200.507 32.1808C199.64 32.4262 198.748 32.549 197.832 32.549Z" fill="#273C49"/>
<path d="M28.9877 41.5301L14.1874 21.8936L6.48096 32.0802L21.3135 51.7167L28.9877 41.5301Z" fill="#2B637B"/>
<path d="M30.2422 0.500977V39.5916L15.47 20.0463L30.2422 0.500977Z" fill="#0E9BD8"/>
<path d="M14.9837 3.33464L0 23.3635L5.17677 30.2544L27.5237 0.500977H12.8937L14.9837 3.33464Z" fill="#728F3F"/>
</svg>
