<?xml version="1.0" encoding="UTF-8"?>
<svg id="a" data-name="Layer 1" xmlns="http://www.w3.org/2000/svg" width="800" height="376.339" viewBox="0 0 800 376.339">
  <polygon points="520.189 .654 520.189 51.813 398.246 192.488 327.775 192.488 327.775 181.114 431.52 61.402 293.163 61.402 293.163 .654 520.189 .654" fill="#ff0012" stroke-width="0"/>
  <path d="M521.037,247.215c0,71.185-57.894,129.124-129.079,129.124-61.15,0-114.36-43.443-126.537-103.299l59.5-12.087c6.422,31.667,34.611,54.638,67.037,54.638,37.689,0,68.375-30.686,68.375-68.375,0-13.648-4.014-26.627-11.195-37.51l40.767-46.609c19.714,22.926,31.132,52.542,31.132,84.12Z" fill="#ff0012" stroke-width="0"/>
  <rect x=".433" y="121.681" width="62.243" height="253.185" fill="#00bbef" stroke-width="0"/>
  <path d="M129.192,257.511h-15.777v-62.239h15.777c36.68,0,66.516-29.84,66.516-66.516s-29.836-66.518-66.516-66.518H0V0h129.192c70.998,0,128.759,57.759,128.759,128.757s-57.761,128.755-128.759,128.755Z" fill="#00bbef" stroke-width="0"/>
  <polygon points="799.152 .654 799.152 51.813 677.21 192.488 606.738 192.488 606.738 181.114 710.483 61.402 572.127 61.402 572.127 .654 799.152 .654" fill="#ff0012" stroke-width="0"/>
  <path d="M800,247.215c0,71.185-57.894,129.124-129.079,129.124-61.15,0-114.36-43.443-126.537-103.299l59.5-12.087c6.422,31.667,34.611,54.638,67.037,54.638,37.689,0,68.375-30.686,68.375-68.375,0-13.648-4.014-26.627-11.195-37.51l40.767-46.609c19.714,22.926,31.132,52.542,31.132,84.12Z" fill="#ff0012" stroke-width="0"/>
</svg>