<?xml version="1.0" encoding="UTF-8" standalone="no"?>
<svg xmlns:rdf="http://www.w3.org/1999/02/22-rdf-syntax-ns#" xmlns="http://www.w3.org/2000/svg" xml:space="preserve" height="162.2" viewBox="0 0 283.03488 162.19818" width="283.03" version="1.1" xmlns:cc="http://creativecommons.org/ns#" xmlns:dc="http://purl.org/dc/elements/1.1/"><g transform="matrix(1.25 0 0 -1.25 -242.44 573.99)"><path d="m2.2969 2.6719v5.5293h5.7988v17.397h6.8773v-17.397l5.732 0.0002v-5.5293h-18.408zm23.197 0v22.926h6.877v-8.766h6.608v8.766h6.912v-22.926l-6.912-0.0001v8.1581h-6.608v-8.1581h-6.877zm27.141 0v22.926h18.205v-5.53h-11.395v-3.404h9.813v-5.43h-9.813v-3.068h10.789v-5.4941h-17.599zm104.42 33.31c-5.66 0-9.47 2.968-9.47 7.182 0 4.586 3.47 6.507 7.79 7.283l3.03 0.539c1.72 0.304 2.83 0.506 2.83 1.686 0 1.214-1.28 1.853-3.5 1.853-2.7 0-5.26-1.279-7.05-3.404l-4.21 3.676c1.28 1.854 5.02 4.922 11.09 4.922 5.83 0 10.15-2.359 10.15-7.619 0-4.283-2.83-6.036-7.28-6.879l-3.44-0.641c-1.82-0.336-2.77-0.742-2.77-1.82s1.18-1.653 2.83-1.653c2.26 0 4.52 0.979 6.17 2.53l3.88-3.742c-1.18-1.418-4.62-3.913-10.05-3.913zm89.99 0c-6.91 0-11.43 4.688-11.43 11.87 0 7.147 4.25 11.867 11.43 11.867 7.25 0 11.43-4.72 11.43-11.867 0-7.182-4.52-11.87-11.43-11.87zm-242.52 0.405v13.554c0 3.203 0.3387 4.754 1.248 6.305 1.5176 2.53 5.5625 3.506 9.1015 3.506 3.541 0 7.587-0.976 9.104-3.506 0.91-1.551 1.248-3.102 1.248-6.305v-13.554h-6.877v13.689c0 1.551-0.204 2.562-0.778 3.236-0.538 0.641-1.416 0.944-2.697 0.944-1.28 0-2.156-0.303-2.695-0.944-0.574-0.674-0.776-1.685-0.776-3.236v-13.689h-6.8785zm26.874 0v22.927h6.876v-5.531c0-3.674-0.167-6.574-0.167-6.574h0.033s1.383 2.463 2.9 4.789l4.483 7.316h6.642v-22.927h-6.877v5.295c0 3.437 0.102 6.269 0.102 6.269h-0.033s-0.945-1.685-3.137-4.922l-4.182-6.642h-6.64zm27.511 0v22.925h6.877v-22.925h-6.877zm12.203 0l6.813 22.927h8.766l6.945-22.927h-7.317l-3.17 12.037c-0.403 1.618-0.808 3.439-0.808 3.439h-0.033s-0.405-1.787-0.811-3.439l-3.201-12.037h-7.184zm27.952 0v22.927h18.209v-5.531h-11.4v-3.404h9.81v-5.428h-9.81v-3.068h10.79v-5.496h-17.599zm23.769 0v22.927h6.88v-8.025h2.12l4.49 8.025h7.35l-5.16-8.8c0.34-0.135 0.67-0.304 0.98-0.506 2.19-1.349 3.2-3.135 3.2-6.102 0-3.406-1.75-5.732-4.38-6.777-1.25-0.472-2.9-0.742-5.5-0.742h-9.98zm49.7 0v22.925h6.88v-22.925h-6.88zm11.67 0v5.531h5.79v17.396h6.88v-17.396h5.73v-5.531h-18.4zm21.2 0l7.56 14.465v8.462h6.87v-8.531l7.96-14.396h-7.28l-3.91 7.855-3.81-7.855h-7.39zm58.23 0v22.927h6.88v-8.699h9.57v-5.529h-9.57v-3.203h10.52v-5.496h-17.4zm-16.59 5.058c2.83 0 4.42 2.428 4.42 6.407 0 3.944-1.49 6.302-4.42 6.302-2.97 0-4.45-2.358-4.45-6.302 0-3.979 1.52-6.407 4.45-6.407zm-117.33 0.135h3.44c0.87 0 1.52 0.134 1.95 0.438 0.61 0.37 0.88 1.01 0.88 1.853s-0.27 1.45-0.88 1.822c-0.43 0.304-1.08 0.438-1.95 0.438h-3.44v-4.551zm-17.8 28.119c-6.92 0-11.43 4.688-11.43 11.869 0 7.149 4.24 11.868 11.43 11.868 7.25 0 11.43-4.719 11.43-11.868 0-7.181-4.52-11.869-11.43-11.869zm38.97 0c-5.66 0-9.47 2.967-9.47 7.182 0 4.584 3.47 6.506 7.79 7.283l3.03 0.537c1.72 0.305 2.83 0.508 2.83 1.688 0 1.215-1.28 1.855-3.5 1.855-2.7 0-5.26-1.28-7.05-3.404l-4.21 3.674c1.28 1.854 5.02 4.922 11.09 4.922 5.83 0 10.15-2.361 10.15-7.62 0-4.283-2.83-6.035-7.29-6.878l-3.43-0.641c-1.82-0.338-2.77-0.741-2.77-1.82s1.18-1.653 2.83-1.653c2.26 0 4.52 0.979 6.17 2.53l3.88-3.745c-1.18-1.416-4.62-3.91-10.05-3.91zm-145.45 0.405v22.927h6.8774v-22.927h-6.8774zm13.619 0v22.927h15.98v-5.562h-9.103v-17.365h-6.877zm20.939 0v22.927h15.981v-5.562h-9.104v-17.365h-6.877zm20.938 0v22.927h6.877v-22.927h-6.877zm13.619 0v22.927h6.879v-5.529c0-3.676-0.168-6.576-0.168-6.576h0.033s1.383 2.461 2.9 4.789l4.485 7.316h6.64v-22.927h-6.877v5.294c0 3.439 0.102 6.272 0.102 6.272h-0.035s-0.943-1.688-3.135-4.924l-4.182-6.642h-6.642zm54.281 0v22.927h6.88v-22.927h-6.88zm-16.92 5.058c2.83 0 4.41 2.428 4.41 6.406 0 3.945-1.48 6.303-4.41 6.303-2.97 0-4.45-2.358-4.45-6.303 0-3.978 1.51-6.406 4.45-6.406zm-101.59 28.658l-7.6852 22.93h7.1132l1.147-3.85h6.945l1.144 3.85h7.182l-7.617-22.93h-8.229zm16.354 0v5.53h5.799v17.4h6.879v-17.4h5.73v-5.53h-18.408zm-12.307 6.68h0.033l0.539 2.22 1.315 4.66h-3.809l1.348-4.66c0.236-0.88 0.44-1.79 0.574-2.22zm-0.844 26.63c-7.1457 0-11.529 4.83-11.529 11.87 0.0001 7.01 4.147 11.87 11.395 11.87 5.226 0 8.495-2.53 10.115-6.2l-6.238-2.23c-0.64 1.79-1.822 2.87-3.844 2.87-2.934 0-4.4161-2.36-4.4161-6.31 0-3.98 1.4821-6.4 4.4161-6.4 2.158 0 3.406 1.31 3.98 3.53l5.967-2.86c-1.147-3-4.384-6.14-9.846-6.14zm64.262 0c-7.147 0-11.529 4.83-11.529 11.87 0 7.01 4.146 11.87 11.396 11.87 5.226 0 8.496-2.53 10.116-6.2l-6.239-2.23c-0.641 1.79-1.822 2.87-3.845 2.87-2.933 0-4.414-2.36-4.414-6.31 0-3.98 1.481-6.4 4.414-6.4 2.158 0 3.407 1.31 3.98 3.53l5.967-2.86c-1.146-3-4.384-6.14-9.846-6.14zm50.135 0c-7.08 0-11.53 4.83-11.53 11.87 0 7.62 4.28 11.87 10.12 11.87 2.69 0 4.61-0.88 5.83-1.92v1.51h5.93v-13.38h-11.12v5.29h5.02c-0.2 1.99-1.52 3.37-4.15 3.37-3.4 0-4.75-2.59-4.75-6.74 0-4.01 1.55-6.47 4.55-6.47 2.23 0 3.61 1.31 4.22 3.57l5.73-2.83c-1.15-3-4.39-6.14-9.85-6.14zm25.96 0c-6.91 0-11.42 4.69-11.42 11.87 0 7.15 4.24 11.87 11.42 11.87 7.25 0 11.43-4.72 11.43-11.87 0-7.18-4.51-11.87-11.43-11.87zm-126.3 0.41v22.92h6.877v-8.76h6.609v8.76h6.912v-22.92h-6.912v8.16h-6.609v-8.16h-6.877zm26.77 0v22.92h6.88v-22.92h-6.88zm43.392 0l-7.687 22.92h7.115l1.146-3.84h6.95l1.14 3.84h7.18l-7.62-22.92h-8.224zm56.134 5.06c2.83 0 4.42 2.42 4.42 6.4 0 3.95-1.48 6.31-4.42 6.31-2.96 0-4.45-2.36-4.45-6.31 0-3.98 1.52-6.4 4.45-6.4zm-52.09 1.61h0.04l0.54 2.23 1.31 4.65h-3.809l1.349-4.65c0.23-0.88 0.44-1.79 0.57-2.23z" transform="matrix(.8 0 0 -.8 193.95 459.19)" fill="#ef3340"/></g></svg>
